<svg width="49" height="49" viewBox="0 0 49 49" fill="none" xmlns="http://www.w3.org/2000/svg">
<g opacity="0.5" clip-path="url(#clip0_1_449)">
<path d="M31.6488 19.5543C32.4911 19.5543 33.1738 18.8716 33.1738 18.0294C33.1738 17.1871 32.4911 16.5044 31.6488 16.5044C30.8066 16.5044 30.1239 17.1871 30.1239 18.0294C30.1239 18.8716 30.8066 19.5543 31.6488 19.5543Z" fill="#80AB9E"/>
<path d="M21.2956 19.47C22.3523 18.764 23.5946 18.3871 24.8654 18.3871C26.5696 18.3871 28.204 19.0641 29.409 20.2691C30.614 21.4741 31.291 23.1085 31.291 24.8127C31.291 26.0835 30.9142 27.3259 30.2081 28.3825C29.5021 29.4392 28.4985 30.2628 27.3244 30.7491C26.1503 31.2355 24.8583 31.3627 23.6119 31.1148C22.3654 30.8669 21.2205 30.2549 20.3219 29.3562C19.4233 28.4576 18.8113 27.3127 18.5633 26.0662C18.3154 24.8198 18.4427 23.5278 18.929 22.3537C19.4153 21.1796 20.2389 20.1761 21.2956 19.47ZM22.4565 28.4179C23.1695 28.8944 24.0079 29.1487 24.8654 29.1487C26.0154 29.1487 27.1183 28.6919 27.9315 27.8787C28.7446 27.0655 29.2015 25.9627 29.2015 24.8127C29.2015 23.9551 28.9472 23.1168 28.4707 22.4037C27.9943 21.6907 27.3171 21.1349 26.5248 20.8067C25.7325 20.4785 24.8606 20.3927 24.0195 20.56C23.1784 20.7273 22.4058 21.1403 21.7994 21.7467C21.193 22.3531 20.7801 23.1257 20.6128 23.9668C20.4454 24.8079 20.5313 25.6797 20.8595 26.472C21.1877 27.2643 21.7434 27.9415 22.4565 28.4179Z" fill="#80AB9E" stroke="#0D0D0D" stroke-width="0.2"/>
<path d="M32.3948 14.8127L32.3936 14.8123C31.6277 14.5286 30.8189 14.3786 30.0023 14.3687C28.6616 14.3072 28.2563 14.2945 24.8643 14.2945C21.4722 14.2945 21.0669 14.3072 19.7263 14.3687C18.9097 14.3786 18.1008 14.5286 17.335 14.8123L17.335 14.8123L17.3337 14.8127C16.7725 15.0292 16.2628 15.3608 15.8374 15.7862C15.4121 16.2115 15.0805 16.7212 14.864 17.2825L14.864 17.2825L14.8635 17.2837C14.5799 18.0496 14.4299 18.8584 14.42 19.675C14.3585 21.0156 14.3458 21.421 14.3458 24.813C14.3458 28.205 14.3585 28.6104 14.42 29.951C14.4299 30.7676 14.5799 31.5765 14.8635 32.3423L14.864 32.3436C15.0805 32.9048 15.4121 33.4145 15.8374 33.8398C16.2628 34.2652 16.7725 34.5968 17.3337 34.8133L17.335 34.8137C18.1008 35.0974 18.9097 35.2474 19.7263 35.2573C21.0669 35.3188 21.4722 35.3315 24.8643 35.3315C28.2563 35.3315 28.6616 35.3188 30.0023 35.2573C30.8189 35.2474 31.6277 35.0974 32.3936 34.8138L32.3948 34.8133C32.956 34.5968 33.4657 34.2652 33.8911 33.8398C34.3164 33.4145 34.648 32.9048 34.8645 32.3436L34.865 32.3423C35.1486 31.5765 35.2987 30.7676 35.3086 29.951C35.37 28.6104 35.3827 28.2072 35.3827 24.8141C35.3827 21.421 35.37 21.0156 35.3086 19.675C35.2987 18.8584 35.1486 18.0495 34.865 17.2837L34.8645 17.2825C34.648 16.7212 34.3164 16.2115 33.8911 15.7862C33.4657 15.3608 32.956 15.0292 32.3948 14.8127ZM19.6263 12.2812L19.6263 12.2812L19.6289 12.2811C20.9821 12.2198 21.4135 12.205 24.8643 12.205C28.3162 12.205 28.7453 12.2187 30.0985 12.2822L30.0985 12.2822L30.1012 12.2823C31.1439 12.3029 32.1757 12.5001 33.1525 12.8656C33.9836 13.1871 34.7384 13.6786 35.3685 14.3088C35.9987 14.9389 36.4902 15.6937 36.8117 16.5249C37.1774 17.5013 37.375 18.5326 37.3961 19.5751L37.396 19.5751L37.3961 19.5776C37.4575 20.9309 37.4723 21.3612 37.4723 24.813C37.4723 28.2648 37.4575 28.6941 37.3961 30.0474L37.3961 30.0474L37.3961 30.0499C37.3755 31.0927 37.1782 32.1245 36.8127 33.1013C36.4912 33.9324 35.9997 34.6872 35.3696 35.3173C34.7394 35.9474 33.9846 36.439 33.1534 36.7604C32.1767 37.1263 31.145 37.3239 30.1022 37.3448L30.0997 37.3449C28.7464 37.4062 28.3151 37.421 24.8643 37.421C21.4135 37.421 20.9832 37.4062 19.6299 37.3449L19.6299 37.3449L19.6274 37.3448C18.5846 37.3239 17.5529 37.1263 16.5761 36.7604C15.745 36.4389 14.9902 35.9474 14.36 35.3173C13.7299 34.6871 13.2383 33.9323 12.9169 33.1012C12.5511 32.1248 12.3535 31.0934 12.3325 30.0509L12.3325 30.0509L12.3324 30.0484C12.2711 28.6952 12.2562 28.2648 12.2562 24.813C12.2562 21.3612 12.2711 20.9319 12.3324 19.5786L12.3324 19.5787L12.3325 19.5761C12.3534 18.5333 12.551 17.5016 12.9169 16.5248C13.2383 15.6937 13.7299 14.9389 14.36 14.3088C14.9901 13.6786 15.745 13.1871 16.5761 12.8656C17.5525 12.4999 18.5839 12.3023 19.6263 12.2812Z" fill="#80AB9E" stroke="#0D0D0D" stroke-width="0.2"/>
<path d="M24.8663 0.762207C11.6048 0.762207 0.813805 11.5502 0.813805 24.8132C0.813805 38.0762 11.6048 48.8642 24.8663 48.8642C38.1278 48.8642 48.9188 38.0762 48.9188 24.8132C48.9188 11.5502 38.1278 0.762207 24.8663 0.762207ZM24.8663 47.2622C12.4883 47.2622 2.4188 37.1912 2.4188 24.8132C2.4188 12.4352 12.4883 2.36421 24.8663 2.36421C37.2443 2.36421 47.3138 12.4352 47.3138 24.8132C47.3138 37.1912 37.2443 47.2622 24.8663 47.2622Z" fill="#80AB9E"/>
</g>
<defs>
<clipPath id="clip0_1_449">
<rect width="48" height="48" fill="white" transform="translate(0.864746 0.812988)"/>
</clipPath>
</defs>
</svg>
