<svg width="49" height="49" viewBox="0 0 49 49" fill="none" xmlns="http://www.w3.org/2000/svg">
<g clip-path="url(#clip0_1_454)">
<path d="M24.8646 0.761719C11.6031 0.761719 0.812134 11.5497 0.812134 24.8127C0.812134 38.0757 11.6031 48.8637 24.8646 48.8637C38.1261 48.8637 48.9171 38.0757 48.9171 24.8127C48.9171 11.5497 38.1261 0.761719 24.8646 0.761719ZM24.8646 47.2617C12.4866 47.2617 2.41713 37.1907 2.41713 24.8127C2.41713 12.4347 12.4866 2.36372 24.8646 2.36372C37.2426 2.36372 47.3121 12.4347 47.3121 24.8127C47.3121 37.1907 37.2426 47.2617 24.8646 47.2617Z" fill="#00E3A5"/>
<path d="M30.1148 11.3126H26.1128C21.0158 11.2616 20.3648 14.4161 20.3648 17.8301V20.3126H18.1148C18.0131 20.299 17.9096 20.309 17.8124 20.3419C17.7152 20.3748 17.6269 20.4296 17.5544 20.5022C17.4818 20.5747 17.427 20.663 17.3941 20.7602C17.3612 20.8574 17.3512 20.9609 17.3648 21.0626V25.5626C17.3512 25.6643 17.3612 25.7677 17.3941 25.8649C17.427 25.9621 17.4818 26.0504 17.5544 26.1229C17.6269 26.1955 17.7152 26.2503 17.8124 26.2832C17.9096 26.3161 18.0131 26.3261 18.1148 26.3126H20.3648V37.5626C20.3523 37.6644 20.3632 37.7678 20.3968 37.8648C20.4304 37.9618 20.4856 38.0499 20.5584 38.1222C20.6312 38.1946 20.7196 38.2494 20.8168 38.2823C20.914 38.3153 21.0175 38.3257 21.1193 38.3126H25.7018C26.1443 38.3636 26.5028 38.0051 26.3618 37.5626L26.3648 26.3126H30.1148C30.2165 26.3261 30.3199 26.3161 30.4171 26.2832C30.5143 26.2503 30.6026 26.1955 30.6751 26.1229C30.7477 26.0504 30.8025 25.9621 30.8354 25.8649C30.8683 25.7677 30.8783 25.6643 30.8648 25.5626V21.0626C30.8783 20.9609 30.8683 20.8574 30.8354 20.7602C30.8025 20.663 30.7477 20.5747 30.6751 20.5022C30.6026 20.4296 30.5143 20.3748 30.4171 20.3419C30.3199 20.309 30.2165 20.299 30.1148 20.3126H26.3603L26.3648 18.0626C26.5103 17.1041 26.5103 17.2601 27.3998 17.3126H30.0833C30.2918 17.2661 30.5138 17.2916 30.6698 17.1401C30.8258 16.9886 30.9158 16.7816 30.8633 16.5626V12.0626C30.8771 11.9609 30.8673 11.8575 30.8346 11.7603C30.8019 11.6631 30.7472 11.5748 30.6748 11.5022C30.6023 11.4296 30.5141 11.3747 30.417 11.3418C30.3198 11.3089 30.2164 11.2989 30.1148 11.3126V11.3126ZM29.3123 15.7286L27.4313 15.6566C25.1018 15.6566 24.9068 16.9211 24.9068 18.2156L24.9008 21.0596C24.9006 21.1649 24.9211 21.2692 24.9613 21.3665C25.0015 21.4639 25.0604 21.5524 25.1348 21.6269C25.2092 21.7015 25.2976 21.7606 25.3949 21.8009C25.4922 21.8413 25.5964 21.8621 25.7018 21.8621H29.3648V24.7601H25.7048C25.4922 24.7601 25.2883 24.8444 25.1378 24.9946C24.9874 25.1447 24.9027 25.3485 24.9023 25.5611L24.9008 36.8126H21.8648V25.5626C21.8648 25.1201 21.5633 24.7616 21.1193 24.7616H18.8648V21.8636H21.1193C21.2245 21.8637 21.3288 21.8431 21.426 21.803C21.5233 21.7628 21.6118 21.7039 21.6863 21.6296C21.8363 21.4781 21.8633 21.2741 21.8633 21.0611V17.8286C21.8633 14.4656 22.5428 12.8636 26.1113 12.8636H29.3108V15.7286H29.3123Z" fill="#00E3A5"/>
</g>
<defs>
<clipPath id="clip0_1_454">
<rect width="48" height="48" fill="white" transform="translate(0.864746 0.812988)"/>
</clipPath>
</defs>
</svg>
