<svg width="49" height="49" viewBox="0 0 49 49" fill="none" xmlns="http://www.w3.org/2000/svg">
<g opacity="0.5" clip-path="url(#clip0_1_445)">
<path d="M24.8646 0.761719C11.6031 0.761719 0.812134 11.5497 0.812134 24.8127C0.812134 38.0757 11.6031 48.8637 24.8646 48.8637C38.1261 48.8637 48.9171 38.0757 48.9171 24.8127C48.9171 11.5497 38.1261 0.761719 24.8646 0.761719ZM24.8646 47.2617C12.4866 47.2617 2.41713 37.1907 2.41713 24.8127C2.41713 12.4347 12.4866 2.36372 24.8646 2.36372C37.2426 2.36372 47.3121 12.4347 47.3121 24.8127C47.3121 37.1907 37.2426 47.2617 24.8646 47.2617Z" fill="#80AB9E"/>
<path d="M38.0556 17.3817C38.222 17.0737 38.3591 16.7508 38.4651 16.4172C38.5142 16.2625 38.5152 16.0965 38.4679 15.9412C38.4207 15.7858 38.3275 15.6485 38.2006 15.5473C38.0737 15.446 37.9191 15.3857 37.7571 15.3741C37.5952 15.3626 37.4336 15.4005 37.2936 15.4827C36.525 15.9393 35.6929 16.2795 34.8246 16.4922C33.7705 15.5409 32.4015 15.0135 30.9816 15.0117C30.2102 15.0123 29.4468 15.1687 28.7373 15.4714C28.0277 15.7742 27.3866 16.2171 26.8524 16.7736C26.3182 17.3301 25.9018 17.9887 25.6283 18.71C25.3548 19.4313 25.2297 20.2004 25.2606 20.9712C21.8871 20.5465 18.8066 18.8395 16.6581 16.2042C16.5758 16.1044 16.4706 16.0259 16.3514 15.9754C16.2323 15.9249 16.1027 15.9039 15.9737 15.9143C15.8447 15.9246 15.7202 15.9659 15.6105 16.0346C15.5009 16.1034 15.4095 16.1976 15.3441 16.3092C14.8521 17.1536 14.5847 18.11 14.5674 19.0871C14.5501 20.0642 14.7834 21.0294 15.2451 21.8907C15.1319 21.9098 15.0231 21.9495 14.9241 22.0077C14.8028 22.0851 14.703 22.1917 14.6338 22.3178C14.5646 22.4439 14.5282 22.5854 14.5281 22.7292C14.5281 24.4317 15.2856 25.9947 16.5066 27.0567L16.4541 27.1092C16.3619 27.2135 16.2985 27.34 16.2701 27.4762C16.2417 27.6125 16.2493 27.7538 16.2921 27.8862C16.5467 28.6805 16.9718 29.4096 17.5377 30.0223C18.1036 30.6351 18.7966 31.1168 19.5681 31.4337C17.9835 32.2067 16.2101 32.5082 14.4591 32.3022C14.2791 32.2839 14.0981 32.3258 13.9445 32.4213C13.7908 32.5169 13.6732 32.6607 13.6101 32.8302C13.5495 33.001 13.5483 33.1873 13.6069 33.3589C13.6654 33.5304 13.7802 33.6771 13.9326 33.7752C16.3131 35.303 19.0825 36.1147 21.9111 36.1137C31.1811 36.1137 36.7221 28.5837 36.7221 21.3042L36.7206 21.0582C37.619 20.3568 38.3994 19.5162 39.0321 18.5682C39.1279 18.4249 39.175 18.2545 39.1665 18.0824C39.1579 17.9102 39.0942 17.7453 38.9846 17.6122C38.8751 17.4791 38.7256 17.3848 38.5582 17.3433C38.3909 17.3018 38.2147 17.3153 38.0556 17.3817V17.3817ZM35.4381 20.0142C35.3293 20.0925 35.2417 20.1968 35.1836 20.3176C35.1254 20.4384 35.0984 20.5718 35.1051 20.7057C35.1141 20.9037 35.1186 21.1047 35.1186 21.3027C35.1186 27.7947 30.1791 34.5102 21.9126 34.5102C20.4383 34.5109 18.9743 34.2634 17.5821 33.7782C19.2495 33.4587 20.8159 32.7437 22.1496 31.6932C22.2794 31.5909 22.3745 31.4509 22.4217 31.2924C22.469 31.134 22.4662 30.9648 22.4136 30.8081C22.3611 30.6513 22.2615 30.5146 22.1283 30.4166C21.9951 30.3186 21.8349 30.2642 21.6696 30.2607C21.0228 30.2484 20.388 30.0842 19.8164 29.7814C19.2447 29.4787 18.7522 29.0458 18.3786 28.5177C18.7581 28.4922 19.1301 28.4292 19.4916 28.3317C19.6666 28.2849 19.8205 28.1802 19.9283 28.0346C20.036 27.889 20.0913 27.7112 20.085 27.5302C20.0788 27.3492 20.0113 27.1757 19.8938 27.0379C19.7762 26.9002 19.6154 26.8063 19.4376 26.7717C18.7071 26.6231 18.0308 26.2787 17.481 25.7754C16.9311 25.2721 16.5285 24.6287 16.3161 23.9142C16.7151 24.0147 17.1246 24.0732 17.5341 24.0867C17.8866 24.0852 18.2136 23.8692 18.3231 23.5302C18.4326 23.1912 18.3036 22.8177 18.0051 22.6197C17.2993 22.1495 16.7559 21.4728 16.449 20.6822C16.1422 19.8916 16.0868 19.0255 16.2906 18.2022C18.8961 20.8757 22.4144 22.4677 26.1426 22.6602C26.4066 22.6617 26.6376 22.5672 26.7981 22.3737C26.9586 22.1802 27.0201 21.9237 26.9631 21.6777C26.758 20.7942 26.8497 19.8677 27.2242 19.0416C27.5987 18.2155 28.235 17.5359 29.0346 17.1079C29.8343 16.6799 30.7527 16.5273 31.6478 16.6739C32.5429 16.8205 33.3647 17.258 33.9861 17.9187C34.0792 18.0181 34.1961 18.0921 34.3257 18.1338C34.4554 18.1756 34.5935 18.1836 34.7271 18.1572C34.9746 18.1077 35.2191 18.0507 35.4606 17.9847C35.3517 18.0662 35.2386 18.1418 35.1216 18.2112C34.9661 18.3065 34.8476 18.4519 34.7858 18.6235C34.724 18.7952 34.7224 18.9827 34.7815 19.1553C34.8405 19.3279 34.9566 19.4752 35.1106 19.573C35.2646 19.6708 35.4473 19.7132 35.6286 19.6932L35.9016 19.6587C35.7513 19.7826 35.5967 19.9011 35.4381 20.0142V20.0142Z" fill="#80AB9E"/>
</g>
<defs>
<clipPath id="clip0_1_445">
<rect width="48" height="48" fill="white" transform="translate(0.864746 0.812988)"/>
</clipPath>
</defs>
</svg>
